<svg width="97" height="33" viewBox="0 0 97 33" fill="none" xmlns="http://www.w3.org/2000/svg">
<g clip-path="url(#clip0_576_102)">
<path d="M29.264 24.216C28.672 24.216 28.216 24.056 27.896 23.736C27.592 23.416 27.44 22.96 27.44 22.368V13.848C27.44 13.256 27.592 12.808 27.896 12.504C28.216 12.184 28.656 12.024 29.216 12.024C29.792 12.024 30.232 12.184 30.536 12.504C30.84 12.808 30.992 13.256 30.992 13.848V15.384L30.728 14.424C31.048 13.688 31.544 13.096 32.216 12.648C32.888 12.2 33.68 11.976 34.592 11.976C35.504 11.976 36.264 12.192 36.872 12.624C37.48 13.056 37.912 13.72 38.168 14.616H37.832C38.184 13.8 38.72 13.16 39.44 12.696C40.176 12.216 41.016 11.976 41.96 11.976C42.872 11.976 43.616 12.16 44.192 12.528C44.784 12.88 45.224 13.424 45.512 14.16C45.8 14.88 45.944 15.8 45.944 16.92V22.368C45.944 22.96 45.784 23.416 45.464 23.736C45.16 24.056 44.72 24.216 44.144 24.216C43.552 24.216 43.096 24.056 42.776 23.736C42.472 23.416 42.32 22.96 42.32 22.368V17.04C42.32 16.256 42.192 15.688 41.936 15.336C41.696 14.968 41.28 14.784 40.688 14.784C40 14.784 39.464 15.024 39.08 15.504C38.696 15.984 38.504 16.664 38.504 17.544V22.368C38.504 22.96 38.344 23.416 38.024 23.736C37.72 24.056 37.28 24.216 36.704 24.216C36.128 24.216 35.68 24.056 35.36 23.736C35.04 23.416 34.88 22.96 34.88 22.368V17.04C34.88 16.256 34.752 15.688 34.496 15.336C34.256 14.968 33.84 14.784 33.248 14.784C32.56 14.784 32.024 15.024 31.64 15.504C31.256 15.984 31.064 16.664 31.064 17.544V22.368C31.064 23.6 30.464 24.216 29.264 24.216ZM51.8189 28.536C51.4029 28.536 51.0589 28.424 50.7869 28.2C50.5149 27.976 50.3549 27.68 50.3069 27.312C50.2589 26.96 50.3229 26.584 50.4989 26.184L52.1069 22.632V24.12L47.8589 14.376C47.6989 13.96 47.6429 13.576 47.6909 13.224C47.7549 12.856 47.9309 12.568 48.2189 12.36C48.5229 12.136 48.9389 12.024 49.4669 12.024C49.8989 12.024 50.2429 12.128 50.4989 12.336C50.7709 12.528 51.0189 12.904 51.2429 13.464L54.0749 20.664H53.3069L56.2349 13.44C56.4589 12.896 56.7069 12.528 56.9789 12.336C57.2669 12.128 57.6509 12.024 58.1309 12.024C58.5469 12.024 58.8749 12.136 59.1149 12.36C59.3709 12.568 59.5229 12.848 59.5709 13.2C59.6349 13.552 59.5709 13.936 59.3789 14.352L53.7389 27.144C53.4989 27.688 53.2269 28.056 52.9229 28.248C52.6349 28.44 52.2669 28.536 51.8189 28.536ZM63.2238 28.536C62.6318 28.536 62.1758 28.376 61.8558 28.056C61.5518 27.752 61.3998 27.296 61.3998 26.688V13.848C61.3998 13.256 61.5518 12.808 61.8558 12.504C62.1758 12.184 62.6158 12.024 63.1758 12.024C63.7678 12.024 64.2158 12.184 64.5198 12.504C64.8238 12.808 64.9758 13.256 64.9758 13.848V15.48L64.7118 14.544C64.9518 13.776 65.4318 13.16 66.1518 12.696C66.8878 12.216 67.7278 11.976 68.6718 11.976C69.6958 11.976 70.5918 12.224 71.3598 12.72C72.1438 13.216 72.7518 13.92 73.1838 14.832C73.6158 15.744 73.8318 16.832 73.8318 18.096C73.8318 19.36 73.6158 20.456 73.1838 21.384C72.7518 22.312 72.1518 23.024 71.3838 23.52C70.6158 24.016 69.7118 24.264 68.6718 24.264C67.7438 24.264 66.9198 24.04 66.1998 23.592C65.4798 23.128 64.9918 22.528 64.7358 21.792H65.0238V26.688C65.0238 27.296 64.8638 27.752 64.5438 28.056C64.2398 28.376 63.7998 28.536 63.2238 28.536ZM67.5918 21.552C68.1038 21.552 68.5518 21.424 68.9358 21.168C69.3358 20.912 69.6398 20.536 69.8478 20.04C70.0718 19.528 70.1838 18.88 70.1838 18.096C70.1838 16.928 69.9438 16.072 69.4638 15.528C68.9838 14.968 68.3598 14.688 67.5918 14.688C67.0798 14.688 66.6238 14.808 66.2238 15.048C65.8398 15.288 65.5358 15.664 65.3118 16.176C65.0878 16.672 64.9758 17.312 64.9758 18.096C64.9758 19.264 65.2158 20.136 65.6958 20.712C66.1758 21.272 66.8078 21.552 67.5918 21.552ZM82.1683 24.264C80.7763 24.264 79.5763 24.016 78.5683 23.52C77.5763 23.008 76.8083 22.296 76.2643 21.384C75.7363 20.456 75.4723 19.368 75.4723 18.12C75.4723 16.904 75.7283 15.84 76.2402 14.928C76.7523 14 77.4643 13.28 78.3763 12.768C79.3043 12.24 80.3523 11.976 81.5203 11.976C82.3683 11.976 83.1363 12.12 83.8243 12.408C84.5123 12.68 85.1043 13.08 85.6003 13.608C86.0963 14.12 86.4723 14.752 86.7283 15.504C86.9843 16.24 87.1123 17.064 87.1123 17.976C87.1123 18.28 87.0163 18.512 86.8243 18.672C86.6323 18.816 86.3523 18.888 85.9843 18.888H78.4483V17.016H84.4963L84.1123 17.352C84.1123 16.696 84.0163 16.152 83.8243 15.72C83.6323 15.272 83.3523 14.936 82.9843 14.712C82.6323 14.488 82.1923 14.376 81.6643 14.376C81.0723 14.376 80.5683 14.512 80.1523 14.784C79.7363 15.056 79.4163 15.448 79.1923 15.96C78.9683 16.472 78.8563 17.088 78.8563 17.808V18C78.8563 19.216 79.1363 20.112 79.6963 20.688C80.2723 21.264 81.1203 21.552 82.2403 21.552C82.6243 21.552 83.0643 21.504 83.5603 21.408C84.0563 21.312 84.5203 21.16 84.9523 20.952C85.3203 20.776 85.6483 20.72 85.9363 20.784C86.2243 20.832 86.4483 20.96 86.6083 21.168C86.7683 21.376 86.8563 21.616 86.8723 21.888C86.9043 22.16 86.8483 22.432 86.7043 22.704C86.5603 22.96 86.3203 23.176 85.9843 23.352C85.4403 23.656 84.8243 23.88 84.1363 24.024C83.4643 24.184 82.8083 24.264 82.1683 24.264ZM94.9338 24.264C93.8298 24.264 92.9018 24.08 92.1498 23.712C91.4138 23.344 90.8618 22.808 90.4938 22.104C90.1418 21.4 89.9658 20.512 89.9658 19.44V14.928H88.9578C88.5098 14.928 88.1578 14.808 87.9018 14.568C87.6618 14.328 87.5418 14 87.5418 13.584C87.5418 13.136 87.6618 12.8 87.9018 12.576C88.1578 12.336 88.5098 12.216 88.9578 12.216H89.9658V10.392C89.9658 9.784 90.1258 9.328 90.4458 9.024C90.7658 8.704 91.2138 8.544 91.7898 8.544C92.3818 8.544 92.8298 8.704 93.1338 9.024C93.4378 9.328 93.5898 9.784 93.5898 10.392V12.216H95.8698C96.3178 12.216 96.6618 12.336 96.9018 12.576C97.1418 12.8 97.2618 13.136 97.2618 13.584C97.2618 14 97.1418 14.328 96.9018 14.568C96.6618 14.808 96.3178 14.928 95.8698 14.928H93.5898V19.296C93.5898 19.968 93.7418 20.472 94.0458 20.808C94.3658 21.144 94.8698 21.312 95.5578 21.312C95.7978 21.312 96.0218 21.288 96.2298 21.24C96.4378 21.192 96.6298 21.16 96.8058 21.144C97.0298 21.128 97.2138 21.2 97.3578 21.36C97.5018 21.504 97.5738 21.832 97.5738 22.344C97.5738 22.728 97.5098 23.064 97.3818 23.352C97.2538 23.64 97.0298 23.848 96.7098 23.976C96.5018 24.056 96.2138 24.12 95.8458 24.168C95.4938 24.232 95.1898 24.264 94.9338 24.264Z" fill="#7B61FF"/>
<path fill-rule="evenodd" clip-rule="evenodd" d="M6.63906 7C8.22071 7 9.50571 8.92702 9.50571 11.2395C9.50571 13.5519 8.22071 15.4789 6.63906 15.4789C5.05744 15.4789 3.77238 13.5519 3.77238 11.2395C3.87123 8.92702 5.05744 7 6.63906 7ZM10.2965 17.3096C13.6576 17.3096 14.0529 19.4293 16.8207 23.187C18.2046 25.8848 16.4254 27.5228 13.2621 26.8483C11.8782 26.1739 10.8896 25.8848 9.90113 25.8848C8.1218 25.9811 7.72643 27.0411 5.7494 26.9447C4.16778 26.9447 3.47582 26.2702 3.37697 25.3067C3.17927 24.2469 3.67352 23.6687 4.16778 22.8016C6.04595 19.5257 8.02296 16.9242 10.2965 17.3096ZM1.20224 13.3592C0.0160193 13.8409 -0.379385 15.5752 0.41143 17.3096C1.20224 19.0439 2.68501 20.1037 3.87123 19.622C5.05744 19.1402 5.45284 17.4059 4.66203 15.6716C3.87123 13.9373 2.38846 12.8774 1.20224 13.3592ZM18.7978 13.3592C19.984 13.8409 20.3794 15.5752 19.5886 17.3096C18.8966 19.0439 17.315 20.1037 16.1288 19.622C14.9426 19.1402 14.5471 17.4059 15.338 15.6716C16.1288 13.9373 17.6116 12.8774 18.7978 13.3592ZM13.2621 7C14.8437 7 16.1288 8.92702 16.1288 11.2395C16.1288 13.5519 14.8437 15.4789 13.2621 15.4789C11.6805 15.4789 10.3954 13.5519 10.3954 11.2395C10.3954 8.92702 11.6805 7 13.2621 7Z" fill="#7B61FF"/>
</g>
<defs>
<clipPath id="clip0_576_102">
<rect width="97" height="33" fill="white"/>
</clipPath>
</defs>
</svg>
